<svg width="47" height="43" viewBox="0 0 47 43" fill="none" xmlns="http://www.w3.org/2000/svg">
<path d="M18.5118 25.2657C18.3443 25.7629 18.3812 26.3063 18.6143 26.7763C18.8475 27.2463 19.2578 27.6044 19.755 27.7719L27.2539 30.298C29.2427 30.9679 31.4162 30.8204 33.2962 29.8878C35.1763 28.9552 36.6088 27.314 37.2788 25.3251C37.9487 23.3363 37.8012 21.1628 36.8686 19.2828C35.936 17.4027 34.2948 15.9702 32.306 15.3002L24.8071 12.7742C24.3099 12.6067 23.7665 12.6436 23.2965 12.8767C22.8265 13.1099 22.4684 13.5202 22.3009 14.0174L18.5118 25.2657Z" fill="black"/>
<path d="M15.3939 22.1279L17.9199 14.6291L14.1705 13.366L11.6444 20.8649L15.3939 22.1279Z" fill="black"/>
<path fill-rule="evenodd" clip-rule="evenodd" d="M21.8382 9.194L22.8783 6.10634L17.2542 4.2118C16.757 4.04432 16.3467 3.68617 16.1135 3.21616C15.8804 2.74615 15.8435 2.20278 16.011 1.70557C16.1785 1.20837 16.5366 0.798059 17.0066 0.564913C17.4766 0.331767 18.02 0.294883 18.5172 0.46237L24.1413 2.35691C25.1358 2.69188 25.9564 3.40817 26.4227 4.34819C26.889 5.2882 26.9627 6.37496 26.6278 7.36937L26.0701 9.02474L27.9448 9.65626L29.8394 4.0321C30.0069 3.5349 30.365 3.12459 30.835 2.89144C31.305 2.6583 31.8484 2.62141 32.3456 2.7889C32.8428 2.95639 33.2531 3.31453 33.4863 3.78454C33.7194 4.25455 33.7563 4.79792 33.5888 5.29513L31.6943 10.9193L33.569 11.5508L34.1266 9.89542C34.4616 8.90101 35.1779 8.08039 36.1179 7.6141C37.0579 7.14781 38.1447 7.07404 39.1391 7.40901L44.7632 9.30355C45.2604 9.47104 45.6707 9.82918 45.9039 10.2992C46.137 10.7692 46.1739 11.3126 46.0064 11.8098C45.8389 12.307 45.4808 12.7173 45.0108 12.9504C44.5408 13.1836 43.9974 13.2205 43.5002 13.053L37.8761 11.1584L37.1031 13.4531C39.0368 14.9675 40.4533 17.0442 41.1574 19.3972C41.8615 21.7503 41.8185 24.2637 41.0344 26.5913C40.2504 28.9189 38.7638 30.9461 36.7795 32.3935C34.7952 33.8409 32.4108 34.6373 29.955 34.673L29.1088 37.1851L34.7329 39.0797C35.2301 39.2472 35.6404 39.6053 35.8736 40.0753C36.1067 40.5453 36.1436 41.0887 35.9761 41.5859C35.8086 42.0831 35.4505 42.4934 34.9805 42.7266C34.5105 42.9597 33.9671 42.9966 33.4699 42.8291L27.8457 40.9346C26.8513 40.5996 26.0307 39.8833 25.5644 38.9433C25.0981 38.0033 25.0244 36.9165 25.3593 35.9221L25.9908 34.0474L24.1161 33.4159L22.2216 39.04C22.0541 39.5372 21.696 39.9475 21.226 40.1807C20.7559 40.4138 20.2126 40.4507 19.7154 40.2832C19.2182 40.1157 18.8078 39.7576 18.5747 39.2876C18.3416 38.8176 18.3047 38.2742 18.4722 37.777L20.3667 32.1529L18.492 31.5213L17.8605 33.3961C17.5255 34.3905 16.8092 35.2111 15.8692 35.6774C14.9292 36.1437 13.8424 36.2174 12.848 35.8825L7.22385 33.9879C6.72665 33.8204 6.31634 33.4623 6.08319 32.9923C5.85005 32.5223 5.81316 31.9789 5.98065 31.4817C6.14814 30.9845 6.50628 30.5742 6.97629 30.341C7.4463 30.1079 7.98967 30.071 8.48688 30.2385L14.111 32.133L15.225 28.826C14.7319 27.9591 14.4652 26.9819 14.4496 25.9847L10.3814 24.6143C9.387 24.2794 8.56639 23.5631 8.1001 22.6231C7.63381 21.683 7.56003 20.5963 7.89501 19.6019L8.36043 18.2202C7.02275 18.4856 5.86178 19.4409 5.39573 20.8245L4.12575 24.5945C3.95827 25.0917 3.60012 25.502 3.13011 25.7352C2.66011 25.9683 2.11673 26.0052 1.61952 25.8377C1.12232 25.6702 0.71201 25.3121 0.478864 24.8421C0.245718 24.3721 0.208832 23.8287 0.376319 23.3315L1.64566 19.5633C2.0016 18.5027 2.5795 17.5301 3.34085 16.7103C4.1022 15.8905 5.02951 15.2424 6.061 14.8092C5.50188 13.8401 5.15571 12.7631 5.04554 11.6497C4.93538 10.5364 5.06375 9.41234 5.42211 8.35251L6.69145 4.58433C6.85894 4.08712 7.21708 3.67682 7.68709 3.44367C8.1571 3.21052 8.70047 3.17364 9.19768 3.34113C9.69488 3.50861 10.1052 3.86675 10.3383 4.33676C10.5715 4.80677 10.6084 5.35015 10.4409 5.84736L9.17154 9.61554C8.70422 11.0028 9.05116 12.464 9.95564 13.4847L10.4211 12.103C10.756 11.1086 11.4723 10.288 12.4123 9.8217C13.3524 9.35541 14.4391 9.28163 15.4335 9.61661L19.5017 10.987C20.1175 10.2025 20.9211 9.58584 21.8382 9.194ZM18.6143 26.7763C18.3812 26.3063 18.3443 25.7629 18.5118 25.2657L22.3009 14.0174C22.4684 13.5202 22.8265 13.1099 23.2965 12.8767C23.7665 12.6436 24.3099 12.6067 24.8071 12.7742L32.306 15.3002C34.2948 15.9702 35.936 17.4027 36.8686 19.2828C37.8012 21.1628 37.9487 23.3363 37.2788 25.3251C36.6088 27.314 35.1763 28.9552 33.2962 29.8878C31.4162 30.8204 29.2427 30.9679 27.2539 30.298L19.755 27.7719C19.2578 27.6044 18.8475 27.2463 18.6143 26.7763ZM17.9199 14.6291L15.3939 22.1279L11.6444 20.8649L14.1705 13.366L17.9199 14.6291Z" fill="black"/>
</svg>
