<svg width="600" height="600" viewBox="0 0 600 600" fill="none" xmlns="http://www.w3.org/2000/svg">
<rect width="600" height="600" fill="#FB5B8C"/>
<path d="M282.25 350.974H304.75V305.974H282.25V350.974ZM112.406 563.363L125.502 545.067L125.502 545.067L112.406 563.363ZM129.237 571.391L122.386 592.822L122.386 592.822L129.237 571.391ZM119.447 539.339C111.103 530.13 96.8745 529.429 87.6659 537.772C78.4573 546.116 77.7561 560.345 86.0997 569.554L119.447 539.339ZM218.769 484.195V406.987H173.769V484.195H218.769ZM218.769 406.987C218.769 375 226.804 364.316 233.44 359.602C242.147 353.419 256.723 350.974 282.25 350.974V305.974C257.518 305.974 229.103 307.489 207.384 322.914C183.595 339.809 173.769 368.381 173.769 406.987H218.769ZM99.309 581.658C106.278 586.647 114.394 590.268 122.386 592.822L136.087 549.959C131.151 548.381 127.618 546.582 125.502 545.067L99.309 581.658ZM125.502 545.067C123.842 543.878 121.963 542.116 119.447 539.339L86.0997 569.554C89.4709 573.274 93.84 577.743 99.309 581.658L125.502 545.067ZM173.769 484.195C173.769 506.649 169.082 527.482 161.269 540.053C157.537 546.057 153.833 549.017 150.721 550.343C147.938 551.529 143.515 552.333 136.087 549.959L122.386 592.822C138.458 597.96 154.165 597.788 168.357 591.743C182.22 585.838 192.337 575.313 199.487 563.808C213.44 541.361 218.769 511.084 218.769 484.195H173.769Z" fill="white"/>
<path d="M323.457 350.664H300.957V305.664H323.457V350.664ZM493.301 563.053L480.205 544.758L480.205 544.758L493.301 563.053ZM476.47 571.081L483.321 592.513L483.321 592.513L476.47 571.081ZM486.26 539.029C494.604 529.82 508.832 529.119 518.041 537.463C527.25 545.807 527.951 560.035 519.607 569.244L486.26 539.029ZM386.938 483.885V406.678H431.938V483.885H386.938ZM386.938 406.678C386.938 374.691 378.903 364.006 372.267 359.293C363.56 353.109 348.984 350.664 323.457 350.664V305.664C348.189 305.664 376.604 307.179 398.323 322.604C422.112 339.499 431.938 368.072 431.938 406.678H386.938ZM506.398 581.349C499.429 586.337 491.313 589.958 483.321 592.513L469.62 549.649C474.556 548.072 478.089 546.272 480.205 544.758L506.398 581.349ZM480.205 544.758C481.865 543.569 483.744 541.806 486.26 539.029L519.607 569.244C516.236 572.965 511.867 577.434 506.398 581.349L480.205 544.758ZM431.938 483.885C431.938 506.339 436.625 527.173 444.438 539.743C448.17 545.747 451.874 548.708 454.986 550.033C457.769 551.219 462.192 552.024 469.62 549.649L483.321 592.513C467.249 597.65 451.542 597.479 437.35 591.434C423.487 585.529 413.371 575.003 406.22 563.499C392.267 541.051 386.938 510.775 386.938 483.885H431.938Z" fill="white"/>
<path d="M316.106 304.772C321.915 295.204 329.797 287.811 352.326 278.682C367.761 272.428 411.717 277.927 426.473 293.9C450.389 319.786 466.305 351.625 496.462 358.367C526.618 365.109 558.002 359.572 570.035 321.734" stroke="white" stroke-width="45" stroke-linecap="round"/>
<path d="M284.894 304.895C279.085 295.327 271.203 287.933 248.674 278.805C233.239 272.551 189.283 278.049 174.527 294.022C150.611 319.908 134.695 351.748 104.538 358.49C74.3817 365.232 42.9976 359.694 30.9648 321.856" stroke="white" stroke-width="45" stroke-linecap="round"/>
<path d="M287.867 280.836V255.965C287.867 232.915 283.633 209.957 273.604 189.202C271.538 184.928 269.361 180.579 267.151 176.401C260.761 164.321 250.649 154.85 239.116 147.518L229.084 141.14C218.84 134.627 206.067 131.183 193.976 132.279V132.279C167.317 134.694 142.253 153.225 141.907 179.991C141.531 208.961 154.002 229.249 179.857 221.057" stroke="white" stroke-width="45" stroke-linecap="round"/>
<path d="M315.937 280.836V255.965C315.937 232.915 320.172 209.957 330.201 189.202C332.266 184.928 334.444 180.579 336.654 176.401C343.043 164.321 353.156 154.85 364.688 147.518L374.72 141.14C384.965 134.627 397.738 131.183 409.828 132.279V132.279C436.488 134.694 461.551 153.225 461.898 179.991C462.273 208.961 449.803 229.249 423.948 221.057" stroke="white" stroke-width="45" stroke-linecap="round"/>
<path d="M289.9 213.951C291.809 202.921 289.931 163.355 287.849 151.025V151.025C283.473 124.773 274.691 99.2743 261.15 76.2703C252.78 62.0491 244.687 49.7181 234.818 39.2539C227.384 31.3712 216.812 28.3119 207.694 33.8386C206.635 34.4806 205.575 35.1577 204.532 35.86C193.892 43.0245 194.525 56.186 200.861 67.5826V67.5826C204.373 73.8991 210.281 80.7248 216.19 76.7717C221.176 73.4363 226.169 66.1899 229.44 57.2582" stroke="white" stroke-width="45" stroke-linecap="round"/>
<path d="M316.057 213.951C314.148 202.921 316.026 163.355 318.108 151.025V151.025C322.484 124.773 331.266 99.2743 344.807 76.2703C353.177 62.0491 361.27 49.7181 371.139 39.2539C378.573 31.3712 389.145 28.3119 398.263 33.8386C399.322 34.4806 400.382 35.1577 401.425 35.86C412.065 43.0245 411.432 56.186 405.096 67.5826V67.5826C401.584 73.8991 395.676 80.7248 389.767 76.7717C384.781 73.4363 379.788 66.1899 376.517 57.2582" stroke="white" stroke-width="45" stroke-linecap="round"/>
</svg>
