<svg width="1215" height="300" viewBox="0 0 1215 300" fill="none" xmlns="http://www.w3.org/2000/svg">
<path d="M1065 0L1068.77 90.1184L1083.8 1.1828L1076.24 91.0628L1102.3 4.71252L1083.54 92.9366L1120.22 10.5335L1090.55 95.7104L1137.26 18.554L1097.15 99.3403L1153.17 28.6475L1103.25 103.769L1167.68 40.6547L1108.74 108.927L1180.58 54.3864L1113.54 114.733L1191.65 69.626L1117.58 121.095L1200.72 86.1331L1120.79 127.913L1207.66 103.647L1123.11 135.079L1212.34 121.893L1124.53 142.48L1214.7 140.581L1125 150L1214.7 159.419L1124.53 157.52L1212.34 178.107L1123.11 164.921L1207.66 196.353L1120.79 172.087L1200.72 213.867L1117.58 178.905L1191.65 230.374L1113.54 185.267L1180.58 245.614L1108.74 191.073L1167.68 259.345L1103.25 196.231L1153.17 271.353L1097.15 200.66L1137.26 281.446L1090.55 204.29L1120.22 289.466L1083.54 207.063L1102.3 295.287L1076.24 208.937L1083.8 298.817L1068.77 209.882L1065 300L1061.23 209.882L1046.2 298.817L1053.76 208.937L1027.7 295.287L1046.46 207.063L1009.78 289.466L1039.45 204.29L992.737 281.446L1032.85 200.66L976.832 271.353L1026.75 196.231L962.318 259.345L1021.26 191.073L949.423 245.614L1016.46 185.267L938.351 230.374L1012.42 178.905L929.276 213.867L1009.21 172.087L922.342 196.353L1006.89 164.921L917.657 178.107L1005.47 157.52L915.296 159.419L1005 150L915.296 140.581L1005.47 142.48L917.657 121.893L1006.89 135.079L922.342 103.647L1009.21 127.913L929.276 86.1331L1012.42 121.095L938.351 69.626L1016.46 114.733L949.423 54.3864L1021.26 108.927L962.318 40.6547L1026.75 103.769L976.832 28.6475L1032.85 99.3403L992.737 18.554L1039.45 95.7104L1009.78 10.5335L1046.46 92.9366L1027.7 4.71252L1053.76 91.0628L1046.2 1.1828L1061.23 90.1184L1065 0Z" fill="#9CE158"/>
<path d="M760 0L763.767 90.1184L778.8 1.1828L771.243 91.0628L797.303 4.71252L778.541 92.9366L815.219 10.5335L785.547 95.7104L832.263 18.554L792.15 99.3403L848.168 28.6475L798.245 103.769L862.682 40.6547L803.738 108.927L875.577 54.3864L808.541 114.733L886.649 69.626L812.578 121.095L895.724 86.1331L815.787 127.913L902.658 103.647L818.115 135.079L907.343 121.893L819.527 142.48L909.704 140.581L820 150L909.704 159.419L819.527 157.52L907.343 178.107L818.115 164.921L902.658 196.353L815.787 172.087L895.724 213.867L812.578 178.905L886.649 230.374L808.541 185.267L875.577 245.614L803.738 191.073L862.682 259.345L798.245 196.231L848.168 271.353L792.15 200.66L832.263 281.446L785.547 204.29L815.219 289.466L778.541 207.063L797.303 295.287L771.243 208.937L778.8 298.817L763.767 209.882L760 300L756.233 209.882L741.2 298.817L748.757 208.937L722.697 295.287L741.459 207.063L704.781 289.466L734.453 204.29L687.737 281.446L727.85 200.66L671.832 271.353L721.755 196.231L657.318 259.345L716.262 191.073L644.423 245.614L711.459 185.267L633.351 230.374L707.422 178.905L624.276 213.867L704.213 172.087L617.342 196.353L701.885 164.921L612.657 178.107L700.473 157.52L610.296 159.419L700 150L610.296 140.581L700.473 142.48L612.657 121.893L701.885 135.079L617.342 103.647L704.213 127.913L624.276 86.1331L707.422 121.095L633.351 69.626L711.459 114.733L644.423 54.3864L716.262 108.927L657.318 40.6547L721.755 103.769L671.832 28.6475L727.85 99.3403L687.737 18.554L734.453 95.7104L704.781 10.5335L741.459 92.9366L722.697 4.71252L748.757 91.0628L741.2 1.1828L756.233 90.1184L760 0Z" fill="#9CE158"/>
<path d="M455 0L458.767 90.1184L473.8 1.1828L466.243 91.0628L492.303 4.71252L473.541 92.9366L510.219 10.5335L480.547 95.7104L527.263 18.554L487.15 99.3403L543.168 28.6475L493.245 103.769L557.682 40.6547L498.738 108.927L570.577 54.3864L503.541 114.733L581.649 69.626L507.578 121.095L590.724 86.1331L510.787 127.913L597.658 103.647L513.115 135.079L602.343 121.893L514.527 142.48L604.704 140.581L515 150L604.704 159.419L514.527 157.52L602.343 178.107L513.115 164.921L597.658 196.353L510.787 172.087L590.724 213.867L507.578 178.905L581.649 230.374L503.541 185.267L570.577 245.614L498.738 191.073L557.682 259.345L493.245 196.231L543.168 271.353L487.15 200.66L527.263 281.446L480.547 204.29L510.219 289.466L473.541 207.063L492.303 295.287L466.243 208.937L473.8 298.817L458.767 209.882L455 300L451.233 209.882L436.2 298.817L443.757 208.937L417.697 295.287L436.459 207.063L399.781 289.466L429.453 204.29L382.737 281.446L422.85 200.66L366.832 271.353L416.755 196.231L352.318 259.345L411.262 191.073L339.423 245.614L406.459 185.267L328.351 230.374L402.422 178.905L319.276 213.867L399.213 172.087L312.342 196.353L396.885 164.921L307.657 178.107L395.473 157.52L305.296 159.419L395 150L305.296 140.581L395.473 142.48L307.657 121.893L396.885 135.079L312.342 103.647L399.213 127.913L319.276 86.1331L402.422 121.095L328.351 69.626L406.459 114.733L339.423 54.3864L411.262 108.927L352.318 40.6547L416.755 103.769L366.832 28.6475L422.85 99.3403L382.737 18.554L429.453 95.7104L399.781 10.5335L436.459 92.9366L417.697 4.71252L443.757 91.0628L436.2 1.1828L451.233 90.1184L455 0Z" fill="#9CE158"/>
<path d="M150 0L153.767 90.1184L168.8 1.1828L161.243 91.0628L187.303 4.71252L168.541 92.9366L205.219 10.5335L175.547 95.7104L222.263 18.554L182.15 99.3403L238.168 28.6475L188.245 103.769L252.682 40.6547L193.738 108.927L265.577 54.3864L198.541 114.733L276.649 69.626L202.578 121.095L285.724 86.1331L205.787 127.913L292.658 103.647L208.115 135.079L297.343 121.893L209.527 142.48L299.704 140.581L210 150L299.704 159.419L209.527 157.52L297.343 178.107L208.115 164.921L292.658 196.353L205.787 172.087L285.724 213.867L202.578 178.905L276.649 230.374L198.541 185.267L265.577 245.614L193.738 191.073L252.682 259.345L188.245 196.231L238.168 271.353L182.15 200.66L222.263 281.446L175.547 204.29L205.219 289.466L168.541 207.063L187.303 295.287L161.243 208.937L168.8 298.817L153.767 209.882L150 300L146.233 209.882L131.2 298.817L138.757 208.937L112.697 295.287L131.459 207.063L94.7813 289.466L124.453 204.29L77.7369 281.446L117.85 200.66L61.8322 271.353L111.755 196.231L47.3179 259.345L106.262 191.073L34.423 245.614L101.459 185.267L23.3508 230.374L97.4216 178.905L14.2759 213.867L94.2134 172.087L7.34152 196.353L91.885 164.921L2.65691 178.107L90.4731 157.52L0.29599 159.419L90 150L0.29599 140.581L90.4731 142.48L2.65691 121.893L91.885 135.079L7.34152 103.647L94.2134 127.913L14.2759 86.1331L97.4216 121.095L23.3508 69.626L101.459 114.733L34.423 54.3864L106.262 108.927L47.3179 40.6547L111.755 103.769L61.8322 28.6475L117.85 99.3403L77.7369 18.554L124.453 95.7104L94.7813 10.5335L131.459 92.9366L112.697 4.71252L138.757 91.0628L131.2 1.1828L146.233 90.1184L150 0Z" fill="#9CE158"/>
</svg>
