<svg width="300" height="300" viewBox="0 0 300 300" fill="none" xmlns="http://www.w3.org/2000/svg">
<path d="M150 0L153.767 90.1184L168.8 1.1828L161.243 91.0628L187.303 4.71252L168.541 92.9366L205.219 10.5335L175.547 95.7104L222.263 18.554L182.15 99.3403L238.168 28.6475L188.245 103.769L252.682 40.6547L193.738 108.927L265.577 54.3864L198.541 114.733L276.649 69.626L202.578 121.095L285.724 86.1331L205.787 127.913L292.658 103.647L208.115 135.079L297.343 121.893L209.527 142.48L299.704 140.581L210 150L299.704 159.419L209.527 157.52L297.343 178.107L208.115 164.921L292.658 196.353L205.787 172.087L285.724 213.867L202.578 178.905L276.649 230.374L198.541 185.267L265.577 245.614L193.738 191.073L252.682 259.345L188.245 196.231L238.168 271.353L182.15 200.66L222.263 281.446L175.547 204.29L205.219 289.466L168.541 207.063L187.303 295.287L161.243 208.937L168.8 298.817L153.767 209.882L150 300L146.233 209.882L131.2 298.817L138.757 208.937L112.697 295.287L131.459 207.063L94.7813 289.466L124.453 204.29L77.7369 281.446L117.85 200.66L61.8322 271.353L111.755 196.231L47.3179 259.345L106.262 191.073L34.423 245.614L101.459 185.267L23.3508 230.374L97.4216 178.905L14.2759 213.867L94.2134 172.087L7.34152 196.353L91.885 164.921L2.65691 178.107L90.4731 157.52L0.29599 159.419L90 150L0.29599 140.581L90.4731 142.48L2.65691 121.893L91.885 135.079L7.34152 103.647L94.2134 127.913L14.2759 86.1331L97.4216 121.095L23.3508 69.626L101.459 114.733L34.423 54.3864L106.262 108.927L47.3179 40.6547L111.755 103.769L61.8322 28.6475L117.85 99.3403L77.7369 18.554L124.453 95.7104L94.7813 10.5335L131.459 92.9366L112.697 4.71252L138.757 91.0628L131.2 1.1828L146.233 90.1184L150 0Z" fill="#FB5B8C"/>
</svg>
