<svg width="534" height="601" viewBox="0 0 534 601" fill="none" xmlns="http://www.w3.org/2000/svg">
<path d="M266.997 567.333C198.654 567.333 139.918 526.197 114.199 467.333C105.279 446.918 100.331 424.37 100.331 400.667V334V267.333C100.331 243.63 105.279 221.082 114.199 200.667C139.917 141.803 198.654 100.667 266.997 100.667C335.341 100.667 394.077 141.803 419.796 200.667C428.716 221.082 433.664 243.63 433.664 267.333V334V400.667C433.664 424.37 428.716 446.918 419.796 467.333C394.077 526.197 335.341 567.333 266.997 567.333Z" fill="#FF2C73"/>
<path d="M183.664 117.333L133.664 34M233.664 267.333H300.331M33.6641 200.667H114.199M114.263 200.667H114.199M500.331 200.667H419.796M419.731 200.667H419.796M33.6641 467.333H114.199M114.263 467.333H114.199M500.331 467.333H419.796M419.731 467.333H419.796M233.664 400.667H300.331M33.6641 334H100.331M100.331 334V400.667M100.331 334V267.333M500.331 334H433.664M433.664 334V267.333M433.664 334V400.667M350.331 117.333L400.331 34M100.331 400.667V267.333M100.331 400.667C100.331 424.37 105.279 446.918 114.199 467.333M100.331 267.333C100.331 243.63 105.279 221.082 114.199 200.667M433.664 267.333V400.667M433.664 267.333C433.664 243.63 428.716 221.082 419.796 200.667M433.664 400.667C433.664 424.37 428.716 446.918 419.796 467.333M114.199 467.333C139.918 526.197 198.654 567.333 266.997 567.333C335.341 567.333 394.077 526.197 419.796 467.333M114.199 200.667C139.917 141.803 198.654 100.667 266.997 100.667C335.341 100.667 394.077 141.803 419.796 200.667" stroke="white" stroke-width="66.6667" stroke-linecap="round" stroke-linejoin="round"/>
</svg>
